<mxfile host="app.diagrams.net" modified="2024-02-06T13:43:11.566Z" agent="Mozilla/5.0 (X11; Linux x86_64) AppleWebKit/537.36 (KHTML, like Gecko) Chrome/118.0.0.0 Safari/537.36" version="23.0.2" etag="G9ZCCeWgWeVeGEiTqHN7" type="github">
  <diagram name="Page-1" id="kzVuxZFiEvYmiqBr-V-F">
    <mxGraphModel>
      <root>
        <mxCell id="0" />
        <mxCell id="1" parent="0" />
      </root>
    </mxGraphModel>
  </diagram>
</mxfile>
